<svg width="701" height="250" viewBox="0 0 701 250" fill="none" xmlns="http://www.w3.org/2000/svg">
<g clip-path="url(#clip0_8471_4098)">
<path d="M347.299 111.792L379.023 32.143L109.664 0.110596L-0.460938 249.889L259.327 171.966L238.961 239.516L652.292 249.889L701.401 0.110596L347.299 111.792Z" fill="white"/>
<path d="M144.186 174.713L123.095 181.324L121.012 166.94L99.6548 172.728L96.3132 189.387L71.5898 196.918L103.166 60.395L125.516 59.3296L144.21 174.713H144.186ZM117.864 145.655L112.779 101.318L112.101 101.391L104.231 148.779L117.864 145.68V145.655Z" fill="#EF3124"/>
<path d="M158.789 122.527L163.317 56.9289L206.565 54.3137L204.627 156.863L186.515 162.312L188.428 74.2425L180.51 75.0658L178.088 120.59C177.289 135.385 175.642 146.911 172.761 155.459C169.032 166.501 158.426 173.741 146.778 173.79L146.996 152.65L149.829 152.505C155.738 150.979 157.263 145.361 158.813 122.527H158.789Z" fill="#EF3124"/>
<path d="M254.098 110.081C253.856 131.487 246.567 144.248 234.435 147.904L213.393 154.225L215.16 53.8057L230.997 52.8613L230.561 81.6769L235.404 81.0474C247.39 79.4734 254.34 88.9898 254.098 110.129V110.081ZM239.206 113.301C239.327 104.124 237.825 97.5134 232.353 98.482L230.295 98.8452L229.786 132.092L231.868 131.559C237.389 130.131 239.109 122.527 239.23 113.301H239.206Z" fill="#EF3124"/>
<path d="M289.039 47.608L288.942 60.7566L291.218 60.5387C299.693 59.7396 306.352 68.1905 306.279 86.4485C306.207 104.706 299.402 115.991 290.855 118.243L288.554 118.848L288.457 133.474L276.616 137.082L276.737 121.947L274.243 122.601C264.243 125.216 255.743 116.063 255.961 95.3595C256.203 74.2685 264.872 62.9844 274.679 62.0642L277.222 61.822L277.343 48.2375L289.014 47.5837L289.039 47.608ZM275.43 106.958L276.907 106.644L277.149 76.7141L275.696 76.9079C271.071 77.5374 269.739 84.7535 269.667 92.9381C269.594 101.147 270.877 107.951 275.454 106.958H275.43ZM295.407 88.3857C295.455 80.7822 294.317 74.3895 290.225 74.9465L288.869 75.1402L288.675 104.077L290.031 103.786C294.051 102.89 295.359 96.0376 295.383 88.4099L295.407 88.3857Z" fill="#EF3124"/>
<path d="M331.923 118.627L323.399 121.194L322.479 112.38L314.778 114.462L313.761 124.075L304.826 126.763L314.415 47.7986L323.617 47.2417L331.923 118.603V118.627ZM321.074 99.3762L318.653 69.5435H318.411L316.134 100.49L321.05 99.3762H321.074Z" fill="#EF3124"/>
<path d="M289.038 227.4L277.778 228.223V156.668L298.676 150.397V163.424L286.205 166.5V179.164L289.038 178.559C296.448 177.009 301.073 184.903 301.073 201.006C301.073 216.213 296.448 226.867 289.038 227.4ZM287.246 192.191L286.181 192.385V214.735L287.246 214.614C290.394 214.275 291.581 207.544 291.581 202.676C291.581 198.245 290.394 191.635 287.246 192.191Z" fill="#EF3124"/>
<path d="M310.976 228.028L307.272 228.27L307.465 212.264L310.395 211.95C312.139 211.756 312.793 209.189 313.107 205.944L303.131 148.967L312.744 146.158L317.442 184.32L317.926 184.248L322.793 143.131L333.254 140.007L326.087 190.301C321.752 222.386 319.379 227.447 310.952 228.004L310.976 228.028Z" fill="#EF3124"/>
<path d="M335.772 209.342C336.789 205.686 337.2 198.591 337.539 187.573L339.016 138.32L365.653 130.329L365.604 205.879L369.575 205.419L369.527 232.855L357.541 233.436V221.885L344.222 222.902V234.065L333.641 234.574L333.689 209.584L335.772 209.342ZM353.69 207.26V149.604L348.63 150.912L347.758 187.428C347.613 196.072 347.104 202.78 346.111 208.131L353.69 207.26Z" fill="#EF3124"/>
<path d="M381.709 222.483L376.842 222.846V204.298L380.716 203.838C383.017 203.571 383.864 200.472 384.3 196.573L371.176 128.578L383.743 124.801L390.33 165.554H390.717L397.061 120.926L411.275 116.665L401.565 177.347C395.778 216.115 392.872 221.684 381.709 222.483Z" fill="#EF3124"/>
<path d="M458.471 102.495V194.923L469.101 193.688V99.2982L489.127 93.293V191.532L496.004 190.733V227.467L475.736 228.436V212.672L415.175 217.321V115.498L431.132 110.703V198.095L440.625 196.981V107.822L458.447 102.47L458.471 102.495Z" fill="#EF3124"/>
<path d="M557.216 96.8343L527.093 104.68V130.953L553.511 125.287V149.138L527.093 153.739V186.744L558.572 183.063L558.306 206.091L504.064 210.256L504.331 88.7223L557.216 72.8374V96.8343Z" fill="#EF3124"/>
<path d="M635.819 76.3496L597.56 86.3261V115.82L631.073 108.628V135.579L597.56 141.439V178.512L637.563 173.838L637.466 199.845L568.89 205.124L568.987 69.3031L635.844 49.229V76.3738L635.819 76.3496Z" fill="#EF3124"/>
</g>
<defs>
<clipPath id="clip0_8471_4098">
<rect width="701" height="250" fill="white"/>
</clipPath>
</defs>
</svg>
